<svg xmlns="http://www.w3.org/2000/svg" viewBox="0 0 64 64" height="600" width="600"><defs></defs><path d="m41 16-5-3-5 3-5-3-5 3h-8l-3-2-3 2-3-2-3 2V7a6 6 0 0 1 6-6h34z" stroke-linecap="round" stroke-linejoin="round" stroke="#000000" fill="#b3b3b3"></path><path d="M50.737 63a1.953 1.953 0 0 0 1.951-1.967V7a6 6 0 0 0-6-6h-40a6 6 0 0 1 6 6v50a6 6 0 0 0 6 6z" fill="#ffffff" stroke-linecap="round" stroke-linejoin="round" stroke="#000000"></path><path d="M23.688 10h16M25 20h14m3 0h4" stroke-linecap="round" stroke-linejoin="round" fill="none" stroke="#d6dcdc"></path><rect x="18" y="18" width="4" height="4" rx="1" fill="#d6dcdc"></rect><path d="M25 28h14m3 0h4" stroke-linecap="round" stroke-linejoin="round" fill="none" stroke="#d6dcdc"></path><rect x="18" y="26" width="4" height="4" rx="1" fill="#d6dcdc"></rect><path d="M25 36h14m3 0h4" stroke-linecap="round" stroke-linejoin="round" fill="none" stroke="#d6dcdc"></path><rect x="18" y="34" width="4" height="4" rx="1" fill="#d6dcdc"></rect><path d="M25 44h14m3 0h4" stroke-linecap="round" stroke-linejoin="round" fill="none" stroke="#d6dcdc"></path><rect x="18" y="42" width="4" height="4" rx="1" fill="#d6dcdc"></rect><path d="m25 48 3 2 3-2 3 2 3-2 3 2 3-2 3 2 3-2 3 2 3-2 3 2 3-2v9a6 6 0 0 1-6 6H19a6 6 0 0 0 6-6z" fill="#d6dcdc" stroke-linecap="round" stroke-linejoin="round" stroke="#000000"></path><g><rect x="28" y="15" width="32" height="26" rx="4" fill="#1e9dde" stroke-linecap="round" stroke-linejoin="round" stroke="#000000"></rect><rect x="31" y="15" width="32" height="26" rx="4" fill="#35ddff" stroke-linecap="round" stroke-linejoin="round" stroke="#000000"></rect><path d="M31 21h32v6H31z" fill="#000000" stroke-linecap="round" stroke-linejoin="round" stroke="#000000"></path><rect x="35" y="33" width="8" height="4" rx="2" fill="#ffffff"></rect><path d="M58 33h-8m8 3h-6" stroke-linecap="round" stroke-linejoin="round" fill="none" stroke="#000000"></path></g></svg>