<svg viewBox="0 0 64 64" fill="none" xmlns="http://www.w3.org/2000/svg" height="600" width="600"><path d="M5 63L37 63C39.2091 63 41 61.2091 41 59L41 5C41 2.79086 39.2091 1 37 1L5 1C2.79086 1 1 2.79086 1 5L1 59C1 61.2091 2.79086 63 5 63Z" fill="#b3b3b3" stroke="#000000" stroke-linecap="round" stroke-linejoin="round"></path><path d="M41 5H1V59H41V5Z" stroke="#000000" stroke-linecap="round" stroke-linejoin="round"></path><path d="M9 1L37 1C39.2091 1 41 2.79086 41 5L41 59C41 61.2091 39.2091 63 37 63L9 63C6.79086 63 5 61.2091 5 59L5 5C5 2.79086 6.79086 1 9 1Z" fill="#ffffff" stroke="#000000" stroke-linecap="round" stroke-linejoin="round"></path><path d="M11 42C11 42.5523 11.4477 43 12 43C12.5523 43 13 42.5523 13 42C13 41.4477 12.5523 41 12 41C11.4477 41 11 41.4477 11 42Z" fill="#d6dcdc" stroke="#d6dcdc" stroke-linecap="round" stroke-linejoin="round"></path><path d="M11 52C11 52.5523 11.4477 53 12 53C12.5523 53 13 52.5523 13 52C13 51.4477 12.5523 51 12 51C11.4477 51 11 51.4477 11 52Z" fill="#d6dcdc" stroke="#d6dcdc" stroke-linecap="round" stroke-linejoin="round"></path><path d="M11 47C11 47.5523 11.4477 48 12 48C12.5523 48 13 47.5523 13 47C13 46.4477 12.5523 46 12 46C11.4477 46 11 46.4477 11 47Z" fill="#d6dcdc" stroke="#d6dcdc" stroke-linecap="round" stroke-linejoin="round"></path><path d="M34 41H16C15.4477 41 15 41.4477 15 42C15 42.5523 15.4477 43 16 43H34C34.5523 43 35 42.5523 35 42C35 41.4477 34.5523 41 34 41Z" fill="#d6dcdc" stroke="#d6dcdc" stroke-linecap="round" stroke-linejoin="round"></path><path d="M34 51H16C15.4477 51 15 51.4477 15 52C15 52.5523 15.4477 53 16 53H34C34.5523 53 35 52.5523 35 52C35 51.4477 34.5523 51 34 51Z" fill="#d6dcdc" stroke="#d6dcdc" stroke-linecap="round" stroke-linejoin="round"></path><path d="M34 46H16C15.4477 46 15 46.4477 15 47C15 47.5523 15.4477 48 16 48H34C34.5523 48 35 47.5523 35 47C35 46.4477 34.5523 46 34 46Z" fill="#d6dcdc" stroke="#d6dcdc" stroke-linecap="round" stroke-linejoin="round"></path><path d="M38 7H8" stroke="#d6dcdc" stroke-linecap="round" stroke-linejoin="round"></path><path d="M38 59H8" stroke="#d6dcdc" stroke-linecap="round" stroke-linejoin="round"></path><path d="M28.553 1.894C28.3869 2.22631 28.1316 2.50581 27.8156 2.70116C27.4996 2.89651 27.1355 2.99999 26.764 3H19.236C18.8645 2.99999 18.5004 2.89651 18.1844 2.70116C17.8684 2.50581 17.6131 2.22631 17.447 1.894L17 1H29L28.553 1.894Z" fill="#000000" stroke="#000000" stroke-linecap="round" stroke-linejoin="round"></path><path d="M27.1097 34.1885C33.3748 32.0275 36.7019 25.1967 34.5409 18.9315C32.3798 12.6663 25.549 9.33924 19.2838 11.5003C13.0186 13.6613 9.69157 20.4921 11.8526 26.7573C14.0137 33.0225 20.8445 36.3496 27.1097 34.1885Z" fill="#d6dcdc" stroke="#d6dcdc" stroke-linecap="round" stroke-linejoin="round"></path><path d="M23.1969 22.8445L23.1969 9.63981" stroke="#ffffff" stroke-width="2" stroke-linecap="round" stroke-linejoin="round"></path><path d="M23.1969 22.8444L11.73 30.0162" stroke="#ffffff" stroke-width="2" stroke-linecap="round" stroke-linejoin="round"></path><path d="M23.1968 22.8445L35.8557 27.4956" stroke="#ffffff" stroke-width="2" stroke-linecap="round" stroke-linejoin="round"></path><path d="M38 10H35" stroke="#d6dcdc" stroke-linecap="round" stroke-linejoin="round"></path><path d="M11 10H8" stroke="#d6dcdc" stroke-linecap="round" stroke-linejoin="round"></path><path d="M43.0001 16H37.5557C32.2513 16 27.1643 18.1071 23.4135 21.8579C19.6628 25.6086 17.5557 30.6957 17.5557 36C17.5557 41.3043 19.6628 46.3914 23.4135 50.1421C27.1643 53.8929 32.2513 56 37.5557 56H43.0001C48.3044 56 53.3915 53.8929 57.1422 50.1421C60.893 46.3914 63.0001 41.3043 63.0001 36C63.0001 30.6957 60.893 25.6086 57.1422 21.8579C53.3915 18.1071 48.3044 16 43.0001 16Z" fill="#f4651d" stroke="#000000" stroke-linecap="round" stroke-linejoin="round"></path><path d="M17.5557 36H26.2829" stroke="#000000" stroke-linecap="round" stroke-linejoin="round"></path><path d="M20.8281 26H29.5554" stroke="#000000" stroke-linecap="round" stroke-linejoin="round"></path><path d="M20.8281 46H29.5554" stroke="#000000" stroke-linecap="round" stroke-linejoin="round"></path><path d="M42.5557 56C53.6014 56 62.5557 47.0457 62.5557 36C62.5557 24.9543 53.6014 16 42.5557 16C31.51 16 22.5557 24.9543 22.5557 36C22.5557 47.0457 31.51 56 42.5557 56Z" fill="#ffc700" stroke="#000000" stroke-linecap="round" stroke-linejoin="round"></path><path d="M42.8 52C51.6366 52 58.8 44.8366 58.8 36C58.8 27.1634 51.6366 20 42.8 20C33.9635 20 26.8 27.1634 26.8 36C26.8 44.8366 33.9635 52 42.8 52Z" fill="#ffc700" stroke="#000000" stroke-linecap="round" stroke-linejoin="round"></path><path d="M45.8003 35.9999C46.3256 35.9999 46.8457 35.8964 47.331 35.6954C47.8163 35.4944 48.2573 35.1997 48.6287 34.8283C49.0002 34.4569 49.2948 34.0159 49.4958 33.5306C49.6968 33.0453 49.8003 32.5252 49.8003 31.9999V31.9999C49.8003 30.939 49.3789 29.9216 48.6287 29.1715C47.8786 28.4213 46.8612 27.9999 45.8003 27.9999H35.8003" stroke="#ffffff" stroke-width="2" stroke-linecap="round" stroke-linejoin="round"></path><path d="M35.8003 44H47.8003C48.8612 44 49.8786 43.5786 50.6287 42.8284C51.3789 42.0783 51.8003 41.0609 51.8003 40V40C51.8003 38.9391 51.3789 37.9217 50.6287 37.1716C49.8786 36.4214 48.8612 36 47.8003 36H37.8003" stroke="#ffffff" stroke-width="2" stroke-linecap="round" stroke-linejoin="round"></path><path d="M37.8 27.9999V43.9999" stroke="#ffffff" stroke-width="2" stroke-linecap="round" stroke-linejoin="round"></path><path d="M40.5005 24V28" stroke="#ffffff" stroke-width="2" stroke-linecap="round" stroke-linejoin="round"></path><path d="M44.5002 24V28" stroke="#ffffff" stroke-width="2" stroke-linecap="round" stroke-linejoin="round"></path><path d="M41.1003 44V48" stroke="#ffffff" stroke-width="2" stroke-linecap="round" stroke-linejoin="round"></path><path d="M45.1003 44V48" stroke="#ffffff" stroke-width="2" stroke-linecap="round" stroke-linejoin="round"></path></svg>